<svg width="30" height="42" viewBox="0 0 30 42" fill="none" xmlns="http://www.w3.org/2000/svg">
<path fill-rule="evenodd" clip-rule="evenodd" d="M7.77454 2.11823C12.3263 -0.526552 17.9212 -0.480326 22.4303 2.23932C26.895 5.01436 29.6086 9.96699 29.5833 15.2946C29.4794 20.5873 26.5697 25.5625 22.9326 29.4085C20.8333 31.6383 18.4849 33.61 15.9354 35.2834C15.6728 35.4352 15.3852 35.5368 15.0868 35.5833C14.7995 35.5711 14.5197 35.4862 14.2727 35.3363C10.3804 32.822 6.96561 29.6125 4.19268 25.8624C1.87238 22.732 0.554147 18.95 0.416995 15.03C0.41398 9.69214 3.22275 4.76302 7.77454 2.11823ZM10.405 17.2391C11.1706 19.1267 12.9779 20.358 14.983 20.358C16.2965 20.3674 17.5592 19.8413 18.4896 18.8968C19.4201 17.9523 19.941 16.668 19.9364 15.3299C19.9434 13.2875 18.741 11.4423 16.8906 10.6557C15.0402 9.8692 12.9068 10.2965 11.4865 11.7382C10.0663 13.1798 9.63928 15.3515 10.405 17.2391Z" fill="#8950FC"/>
<ellipse opacity="0.4" cx="15.0003" cy="39.75" rx="10.4167" ry="2.08334" fill="#8950FC"/>
</svg>
